<svg xmlns="http://www.w3.org/2000/svg" xmlns:xlink="http://www.w3.org/1999/xlink" width="180" zoomAndPan="magnify" viewBox="0 0 135 44.999999" height="60" preserveAspectRatio="xMidYMid meet" version="1.0"><defs><g/><clipPath id="fcf7a8a262"><path d="M 122.136719 33.890625 L 129.667969 33.890625 L 129.667969 41.421875 L 122.136719 41.421875 Z M 122.136719 33.890625 " clip-rule="nonzero"/></clipPath><clipPath id="6e6e35697e"><path d="M 125.902344 33.890625 C 123.824219 33.890625 122.136719 35.574219 122.136719 37.65625 C 122.136719 39.734375 123.824219 41.421875 125.902344 41.421875 C 127.980469 41.421875 129.667969 39.734375 129.667969 37.65625 C 129.667969 35.574219 127.980469 33.890625 125.902344 33.890625 Z M 125.902344 33.890625 " clip-rule="nonzero"/></clipPath></defs><g fill="#000000" fill-opacity="1"><g transform="translate(7.486868, 38.297792)"><g><path d="M 0.6875 0 L 4.515625 -39.625 L 17.9375 -39.625 L 21.71875 0 L 14.203125 0 L 13.65625 -6.40625 L 8.859375 -6.40625 L 8.390625 0 Z M 9.453125 -12.734375 L 13.046875 -12.734375 L 11.296875 -32.890625 L 10.9375 -32.890625 Z M 9.453125 -12.734375 "/></g></g></g><g fill="#000000" fill-opacity="1"><g transform="translate(27.320678, 38.297792)"><g><path d="M 1.609375 -33.765625 L 9.6875 -33.765625 L 9.6875 -29.46875 C 10.019531 -30.851562 10.601562 -31.972656 11.4375 -32.828125 C 12.269531 -33.691406 13.378906 -34.125 14.765625 -34.125 C 17.035156 -34.125 18.71875 -33.425781 19.8125 -32.03125 C 20.90625 -30.632812 21.453125 -28.644531 21.453125 -26.0625 L 21.453125 0 L 13.515625 0 L 13.515625 -25.234375 C 13.515625 -25.972656 13.367188 -26.601562 13.078125 -27.125 C 12.785156 -27.644531 12.332031 -27.90625 11.71875 -27.90625 C 10.882812 -27.90625 10.335938 -27.523438 10.078125 -26.765625 C 9.816406 -26.015625 9.6875 -25.007812 9.6875 -23.75 L 9.6875 0 L 1.609375 0 Z M 1.609375 -33.765625 "/></g></g></g><g fill="#000000" fill-opacity="1"><g transform="translate(47.800236, 38.297792)"><g><path d="M 10.890625 0.375 C 4.210938 0.375 0.875 -3.007812 0.875 -9.78125 L 0.921875 -12.453125 L 9 -12.453125 L 9.046875 -8.484375 C 9.046875 -7.679688 9.195312 -7.070312 9.5 -6.65625 C 9.8125 -6.25 10.320312 -6.046875 11.03125 -6.046875 C 12.101562 -6.046875 12.640625 -6.921875 12.640625 -8.671875 C 12.640625 -9.960938 12.382812 -10.976562 11.875 -11.71875 C 11.363281 -12.457031 10.554688 -13.238281 9.453125 -14.0625 L 5.171875 -17.390625 C 3.691406 -18.523438 2.628906 -19.695312 1.984375 -20.90625 C 1.335938 -22.125 1.015625 -23.84375 1.015625 -26.0625 C 1.015625 -27.78125 1.46875 -29.242188 2.375 -30.453125 C 3.28125 -31.671875 4.484375 -32.585938 5.984375 -33.203125 C 7.492188 -33.816406 9.175781 -34.125 11.03125 -34.125 C 17.570312 -34.125 20.84375 -30.867188 20.84375 -24.359375 L 20.84375 -23.703125 L 12.5 -23.703125 L 12.5 -25 C 12.5 -25.800781 12.367188 -26.484375 12.109375 -27.046875 C 11.847656 -27.617188 11.410156 -27.90625 10.796875 -27.90625 C 10.242188 -27.90625 9.820312 -27.742188 9.53125 -27.421875 C 9.238281 -27.097656 9.09375 -26.660156 9.09375 -26.109375 C 9.09375 -24.878906 9.566406 -23.925781 10.515625 -23.25 L 15.5 -19.609375 C 17.28125 -18.285156 18.644531 -16.847656 19.59375 -15.296875 C 20.550781 -13.742188 21.03125 -11.78125 21.03125 -9.40625 C 21.03125 -6.269531 20.140625 -3.851562 18.359375 -2.15625 C 16.578125 -0.46875 14.085938 0.375 10.890625 0.375 Z M 10.890625 0.375 "/></g></g></g><g fill="#000000" fill-opacity="1"><g transform="translate(67.172831, 38.297792)"><g><path d="M 11.4375 0.375 C 4.707031 0.375 1.34375 -3.113281 1.34375 -10.09375 L 1.34375 -23.65625 C 1.34375 -26.851562 2.238281 -29.394531 4.03125 -31.28125 C 5.832031 -33.175781 8.300781 -34.125 11.4375 -34.125 C 14.570312 -34.125 17.039062 -33.175781 18.84375 -31.28125 C 20.644531 -29.394531 21.546875 -26.851562 21.546875 -23.65625 L 21.546875 -10.09375 C 21.546875 -3.113281 18.175781 0.375 11.4375 0.375 Z M 11.4375 -5.859375 C 12.082031 -5.859375 12.554688 -6.085938 12.859375 -6.546875 C 13.171875 -7.003906 13.328125 -7.632812 13.328125 -8.4375 L 13.328125 -24.953125 C 13.328125 -26.921875 12.695312 -27.90625 11.4375 -27.90625 C 10.175781 -27.90625 9.546875 -26.921875 9.546875 -24.953125 L 9.546875 -8.4375 C 9.546875 -7.632812 9.695312 -7.003906 10 -6.546875 C 10.3125 -6.085938 10.789062 -5.859375 11.4375 -5.859375 Z M 11.4375 -5.859375 "/></g></g></g><g fill="#000000" fill-opacity="1"><g transform="translate(87.560142, 38.297792)"><g><path d="M 1.609375 -33.765625 L 9.5 -33.765625 L 9.5 -29.84375 C 9.875 -31.289062 10.503906 -32.363281 11.390625 -33.0625 C 12.285156 -33.769531 13.546875 -34.125 15.171875 -34.125 C 16.492188 -34.125 17.640625 -33.820312 18.609375 -33.21875 C 19.578125 -32.625 20.257812 -31.804688 20.65625 -30.765625 C 21.332031 -31.929688 22.085938 -32.78125 22.921875 -33.3125 C 23.753906 -33.851562 24.910156 -34.125 26.390625 -34.125 C 29.023438 -34.125 30.859375 -33.316406 31.890625 -31.703125 C 32.921875 -30.097656 33.4375 -27.753906 33.4375 -24.671875 L 33.34375 0 L 25.234375 0 L 25.234375 -24.8125 C 25.234375 -27 24.675781 -28.09375 23.5625 -28.09375 C 22.800781 -28.09375 22.25 -27.710938 21.90625 -26.953125 C 21.570312 -26.203125 21.40625 -25.304688 21.40625 -24.265625 L 21.40625 0 L 13.328125 0 L 13.328125 -24.8125 C 13.328125 -25.769531 13.226562 -26.539062 13.03125 -27.125 C 12.832031 -27.707031 12.410156 -28 11.765625 -28 C 10.929688 -28 10.34375 -27.585938 10 -26.765625 C 9.664062 -25.953125 9.5 -24.976562 9.5 -23.84375 L 9.5 0 L 1.609375 0 Z M 1.609375 -33.765625 "/></g></g></g><g clip-path="url(#fcf7a8a262)"><g clip-path="url(#6e6e35697e)"><path fill="#ffde59" d="M 122.136719 33.890625 L 129.667969 33.890625 L 129.667969 41.421875 L 122.136719 41.421875 Z M 122.136719 33.890625 " fill-opacity="1" fill-rule="nonzero"/></g></g></svg>